<svg xmlns="http://www.w3.org/2000/svg" version="1.1" xmlns:xlink="http://www.w3.org/1999/xlink" xmlns:svgjs="http://svgjs.dev/svgjs" viewBox="0 0 3100 660" opacity="1"><g fill="hsla(272, 76%, 53%, 0.9)" transform="matrix(1,0,0,1,8.72265625,-313.88055419921875)"><path d="M-10,10C42.08333333333333,34.583333333333336,137.91666666666666,142.58333333333334,240,128C342.08333333333337,113.41666666666667,380,-65,480,-60C580,-55,620,159.29166666666666,720,152C820,144.70833333333334,860,-76.875,960,-95C1060,-113.125,1100,55.625,1200,65C1300,74.375,1340,-62.29166666666667,1440,-50C1540,-37.70833333333333,1580,123.79166666666667,1680,124C1780,124.20833333333333,1820,-59.20833333333333,1920,-49C2020,-38.79166666666667,2060,197.79166666666666,2160,173C2260,148.20833333333334,2297.9166666666665,-215.29166666666669,2400,-168C2502.0833333333335,-120.70833333333333,3254.1666666666665,177.5,2650,400C2045.8333333333335,622.5,156.25,795.8333333333334,-500,900" transform="matrix(1,0,0,1,0,150)" opacity="0.05"></path><path d="M-10,10C42.08333333333333,34.583333333333336,137.91666666666666,142.58333333333334,240,128C342.08333333333337,113.41666666666667,380,-65,480,-60C580,-55,620,159.29166666666666,720,152C820,144.70833333333334,860,-76.875,960,-95C1060,-113.125,1100,55.625,1200,65C1300,74.375,1340,-62.29166666666667,1440,-50C1540,-37.70833333333333,1580,123.79166666666667,1680,124C1780,124.20833333333333,1820,-59.20833333333333,1920,-49C2020,-38.79166666666667,2060,197.79166666666666,2160,173C2260,148.20833333333334,2297.9166666666665,-215.29166666666669,2400,-168C2502.0833333333335,-120.70833333333333,3254.1666666666665,177.5,2650,400C2045.8333333333335,622.5,156.25,795.8333333333334,-500,900" transform="matrix(1,0,0,1,0,300)" opacity="0.17"></path><path d="M-10,10C42.08333333333333,34.583333333333336,137.91666666666666,142.58333333333334,240,128C342.08333333333337,113.41666666666667,380,-65,480,-60C580,-55,620,159.29166666666666,720,152C820,144.70833333333334,860,-76.875,960,-95C1060,-113.125,1100,55.625,1200,65C1300,74.375,1340,-62.29166666666667,1440,-50C1540,-37.70833333333333,1580,123.79166666666667,1680,124C1780,124.20833333333333,1820,-59.20833333333333,1920,-49C2020,-38.79166666666667,2060,197.79166666666666,2160,173C2260,148.20833333333334,2297.9166666666665,-215.29166666666669,2400,-168C2502.0833333333335,-120.70833333333333,3254.1666666666665,177.5,2650,400C2045.8333333333335,622.5,156.25,795.8333333333334,-500,900" transform="matrix(1,0,0,1,0,450)" opacity="0.29"></path><path d="M-10,10C42.08333333333333,34.583333333333336,137.91666666666666,142.58333333333334,240,128C342.08333333333337,113.41666666666667,380,-65,480,-60C580,-55,620,159.29166666666666,720,152C820,144.70833333333334,860,-76.875,960,-95C1060,-113.125,1100,55.625,1200,65C1300,74.375,1340,-62.29166666666667,1440,-50C1540,-37.70833333333333,1580,123.79166666666667,1680,124C1780,124.20833333333333,1820,-59.20833333333333,1920,-49C2020,-38.79166666666667,2060,197.79166666666666,2160,173C2260,148.20833333333334,2297.9166666666665,-215.29166666666669,2400,-168C2502.0833333333335,-120.70833333333333,3254.1666666666665,177.5,2650,400C2045.8333333333335,622.5,156.25,795.8333333333334,-500,900" transform="matrix(1,0,0,1,0,600)" opacity="0.41"></path><path d="M-10,10C42.08333333333333,34.583333333333336,137.91666666666666,142.58333333333334,240,128C342.08333333333337,113.41666666666667,380,-65,480,-60C580,-55,620,159.29166666666666,720,152C820,144.70833333333334,860,-76.875,960,-95C1060,-113.125,1100,55.625,1200,65C1300,74.375,1340,-62.29166666666667,1440,-50C1540,-37.70833333333333,1580,123.79166666666667,1680,124C1780,124.20833333333333,1820,-59.20833333333333,1920,-49C2020,-38.79166666666667,2060,197.79166666666666,2160,173C2260,148.20833333333334,2297.9166666666665,-215.29166666666669,2400,-168C2502.0833333333335,-120.70833333333333,3254.1666666666665,177.5,2650,400C2045.8333333333335,622.5,156.25,795.8333333333334,-500,900" transform="matrix(1,0,0,1,0,750)" opacity="0.53"></path><path d="M-10,10C42.08333333333333,34.583333333333336,137.91666666666666,142.58333333333334,240,128C342.08333333333337,113.41666666666667,380,-65,480,-60C580,-55,620,159.29166666666666,720,152C820,144.70833333333334,860,-76.875,960,-95C1060,-113.125,1100,55.625,1200,65C1300,74.375,1340,-62.29166666666667,1440,-50C1540,-37.70833333333333,1580,123.79166666666667,1680,124C1780,124.20833333333333,1820,-59.20833333333333,1920,-49C2020,-38.79166666666667,2060,197.79166666666666,2160,173C2260,148.20833333333334,2297.9166666666665,-215.29166666666669,2400,-168C2502.0833333333335,-120.70833333333333,3254.1666666666665,177.5,2650,400C2045.8333333333335,622.5,156.25,795.8333333333334,-500,900" transform="matrix(1,0,0,1,0,900)" opacity="0.64"></path><path d="M-10,10C42.08333333333333,34.583333333333336,137.91666666666666,142.58333333333334,240,128C342.08333333333337,113.41666666666667,380,-65,480,-60C580,-55,620,159.29166666666666,720,152C820,144.70833333333334,860,-76.875,960,-95C1060,-113.125,1100,55.625,1200,65C1300,74.375,1340,-62.29166666666667,1440,-50C1540,-37.70833333333333,1580,123.79166666666667,1680,124C1780,124.20833333333333,1820,-59.20833333333333,1920,-49C2020,-38.79166666666667,2060,197.79166666666666,2160,173C2260,148.20833333333334,2297.9166666666665,-215.29166666666669,2400,-168C2502.0833333333335,-120.70833333333333,3254.1666666666665,177.5,2650,400C2045.8333333333335,622.5,156.25,795.8333333333334,-500,900" transform="matrix(1,0,0,1,0,1050)" opacity="0.76"></path><path d="M-10,10C42.08333333333333,34.583333333333336,137.91666666666666,142.58333333333334,240,128C342.08333333333337,113.41666666666667,380,-65,480,-60C580,-55,620,159.29166666666666,720,152C820,144.70833333333334,860,-76.875,960,-95C1060,-113.125,1100,55.625,1200,65C1300,74.375,1340,-62.29166666666667,1440,-50C1540,-37.70833333333333,1580,123.79166666666667,1680,124C1780,124.20833333333333,1820,-59.20833333333333,1920,-49C2020,-38.79166666666667,2060,197.79166666666666,2160,173C2260,148.20833333333334,2297.9166666666665,-215.29166666666669,2400,-168C2502.0833333333335,-120.70833333333333,3254.1666666666665,177.5,2650,400C2045.8333333333335,622.5,156.25,795.8333333333334,-500,900" transform="matrix(1,0,0,1,0,1200)" opacity="0.88"></path><path d="M-10,10C42.08333333333333,34.583333333333336,137.91666666666666,142.58333333333334,240,128C342.08333333333337,113.41666666666667,380,-65,480,-60C580,-55,620,159.29166666666666,720,152C820,144.70833333333334,860,-76.875,960,-95C1060,-113.125,1100,55.625,1200,65C1300,74.375,1340,-62.29166666666667,1440,-50C1540,-37.70833333333333,1580,123.79166666666667,1680,124C1780,124.20833333333333,1820,-59.20833333333333,1920,-49C2020,-38.79166666666667,2060,197.79166666666666,2160,173C2260,148.20833333333334,2297.9166666666665,-215.29166666666669,2400,-168C2502.0833333333335,-120.70833333333333,3254.1666666666665,177.5,2650,400C2045.8333333333335,622.5,156.25,795.8333333333334,-500,900" transform="matrix(1,0,0,1,0,1350)" opacity="1.00"></path></g></svg>